<mxfile host="app.diagrams.net" modified="2024-05-23T09:32:40.916Z" agent="Mozilla/5.0 (Windows NT 10.0; Win64; x64) AppleWebKit/537.36 (KHTML, like Gecko) Chrome/124.0.0.0 Safari/537.36" etag="X-9aovI51DxcsWh7CP1S" version="24.4.6" type="device">
  <diagram name="Страница — 1" id="OtyTiOaW97Eoan9aIRyw">
    <mxGraphModel dx="1219" dy="874" grid="1" gridSize="10" guides="1" tooltips="1" connect="1" arrows="1" fold="1" page="0" pageScale="1" pageWidth="827" pageHeight="1169" math="0" shadow="0">
      <root>
        <mxCell id="0" />
        <mxCell id="1" parent="0" />
        <mxCell id="NGaofTwTxS4VPDwiYb_3-1" value="Барбершоп" style="rounded=0;whiteSpace=wrap;html=1;" vertex="1" parent="1">
          <mxGeometry x="-296" y="178" width="120" height="60" as="geometry" />
        </mxCell>
        <mxCell id="NGaofTwTxS4VPDwiYb_3-2" value="Справочники" style="rounded=0;whiteSpace=wrap;html=1;" vertex="1" parent="1">
          <mxGeometry x="-80" y="-240" width="120" height="40" as="geometry" />
        </mxCell>
        <mxCell id="NGaofTwTxS4VPDwiYb_3-3" value="Документы" style="rounded=0;whiteSpace=wrap;html=1;" vertex="1" parent="1">
          <mxGeometry x="-80" y="160" width="120" height="40" as="geometry" />
        </mxCell>
        <mxCell id="NGaofTwTxS4VPDwiYb_3-4" value="Перечисления" style="rounded=0;whiteSpace=wrap;html=1;" vertex="1" parent="1">
          <mxGeometry x="340" y="50" width="120" height="40" as="geometry" />
        </mxCell>
        <mxCell id="NGaofTwTxS4VPDwiYb_3-5" value="Отчеты" style="rounded=0;whiteSpace=wrap;html=1;" vertex="1" parent="1">
          <mxGeometry x="380" y="200" width="120" height="60" as="geometry" />
        </mxCell>
        <mxCell id="NGaofTwTxS4VPDwiYb_3-6" value="Обработки" style="rounded=0;whiteSpace=wrap;html=1;" vertex="1" parent="1">
          <mxGeometry x="430" y="300" width="120" height="60" as="geometry" />
        </mxCell>
        <mxCell id="NGaofTwTxS4VPDwiYb_3-7" value="Регистры накопления" style="rounded=0;whiteSpace=wrap;html=1;" vertex="1" parent="1">
          <mxGeometry x="-78" y="496" width="120" height="60" as="geometry" />
        </mxCell>
        <mxCell id="NGaofTwTxS4VPDwiYb_3-8" value="Регистры сведений" style="rounded=0;whiteSpace=wrap;html=1;" vertex="1" parent="1">
          <mxGeometry x="300" y="395" width="120" height="60" as="geometry" />
        </mxCell>
        <mxCell id="NGaofTwTxS4VPDwiYb_3-9" value="Клиенты" style="rounded=0;whiteSpace=wrap;html=1;" vertex="1" parent="1">
          <mxGeometry x="120" y="-120" width="120" height="40" as="geometry" />
        </mxCell>
        <mxCell id="NGaofTwTxS4VPDwiYb_3-10" value="Салоны" style="rounded=0;whiteSpace=wrap;html=1;" vertex="1" parent="1">
          <mxGeometry x="120" y="-360" width="120" height="40" as="geometry" />
        </mxCell>
        <mxCell id="NGaofTwTxS4VPDwiYb_3-11" value="Должности" style="rounded=0;whiteSpace=wrap;html=1;" vertex="1" parent="1">
          <mxGeometry x="120" y="-180" width="120" height="40" as="geometry" />
        </mxCell>
        <mxCell id="NGaofTwTxS4VPDwiYb_3-12" value="Сотрудники" style="rounded=0;whiteSpace=wrap;html=1;" vertex="1" parent="1">
          <mxGeometry x="120" y="-240" width="120" height="40" as="geometry" />
        </mxCell>
        <mxCell id="NGaofTwTxS4VPDwiYb_3-13" value="Услуги&amp;nbsp;" style="rounded=0;whiteSpace=wrap;html=1;" vertex="1" parent="1">
          <mxGeometry x="120" y="-300" width="120" height="40" as="geometry" />
        </mxCell>
        <mxCell id="NGaofTwTxS4VPDwiYb_3-14" value="" style="endArrow=none;html=1;rounded=0;fontSize=12;startSize=8;endSize=8;curved=1;exitX=1;exitY=0.5;exitDx=0;exitDy=0;" edge="1" parent="1" source="NGaofTwTxS4VPDwiYb_3-2">
          <mxGeometry width="50" height="50" relative="1" as="geometry">
            <mxPoint x="179" y="102" as="sourcePoint" />
            <mxPoint x="80" y="-220" as="targetPoint" />
          </mxGeometry>
        </mxCell>
        <mxCell id="NGaofTwTxS4VPDwiYb_3-15" value="" style="endArrow=none;html=1;rounded=0;fontSize=12;startSize=8;endSize=8;curved=1;" edge="1" parent="1">
          <mxGeometry width="50" height="50" relative="1" as="geometry">
            <mxPoint x="80" y="-100" as="sourcePoint" />
            <mxPoint x="80" y="-340" as="targetPoint" />
          </mxGeometry>
        </mxCell>
        <mxCell id="NGaofTwTxS4VPDwiYb_3-17" value="" style="endArrow=classic;html=1;rounded=0;fontSize=12;startSize=8;endSize=8;curved=1;entryX=0;entryY=0.5;entryDx=0;entryDy=0;" edge="1" parent="1" target="NGaofTwTxS4VPDwiYb_3-9">
          <mxGeometry width="50" height="50" relative="1" as="geometry">
            <mxPoint x="80" y="-100" as="sourcePoint" />
            <mxPoint x="170" y="-50" as="targetPoint" />
          </mxGeometry>
        </mxCell>
        <mxCell id="NGaofTwTxS4VPDwiYb_3-18" value="" style="endArrow=classic;html=1;rounded=0;fontSize=12;startSize=8;endSize=8;curved=1;entryX=0;entryY=0.5;entryDx=0;entryDy=0;" edge="1" parent="1" target="NGaofTwTxS4VPDwiYb_3-10">
          <mxGeometry width="50" height="50" relative="1" as="geometry">
            <mxPoint x="80" y="-340" as="sourcePoint" />
            <mxPoint x="170" y="-280" as="targetPoint" />
          </mxGeometry>
        </mxCell>
        <mxCell id="NGaofTwTxS4VPDwiYb_3-19" value="" style="endArrow=classic;html=1;rounded=0;fontSize=12;startSize=8;endSize=8;curved=1;entryX=0;entryY=0.5;entryDx=0;entryDy=0;" edge="1" parent="1" target="NGaofTwTxS4VPDwiYb_3-13">
          <mxGeometry width="50" height="50" relative="1" as="geometry">
            <mxPoint x="80" y="-280" as="sourcePoint" />
            <mxPoint x="170" y="-110" as="targetPoint" />
          </mxGeometry>
        </mxCell>
        <mxCell id="NGaofTwTxS4VPDwiYb_3-20" value="" style="endArrow=classic;html=1;rounded=0;fontSize=12;startSize=8;endSize=8;curved=1;entryX=0;entryY=0.5;entryDx=0;entryDy=0;" edge="1" parent="1" target="NGaofTwTxS4VPDwiYb_3-12">
          <mxGeometry width="50" height="50" relative="1" as="geometry">
            <mxPoint x="80" y="-220" as="sourcePoint" />
            <mxPoint x="170" y="-110" as="targetPoint" />
          </mxGeometry>
        </mxCell>
        <mxCell id="NGaofTwTxS4VPDwiYb_3-21" value="" style="endArrow=classic;html=1;rounded=0;fontSize=12;startSize=8;endSize=8;curved=1;entryX=0;entryY=0.5;entryDx=0;entryDy=0;" edge="1" parent="1" target="NGaofTwTxS4VPDwiYb_3-11">
          <mxGeometry width="50" height="50" relative="1" as="geometry">
            <mxPoint x="80" y="-160" as="sourcePoint" />
            <mxPoint x="170" y="-110" as="targetPoint" />
          </mxGeometry>
        </mxCell>
        <mxCell id="NGaofTwTxS4VPDwiYb_3-22" value="" style="rounded=0;whiteSpace=wrap;html=1;" vertex="1" parent="1">
          <mxGeometry x="120" y="-60" width="120" height="40" as="geometry" />
        </mxCell>
        <mxCell id="NGaofTwTxS4VPDwiYb_3-23" value="" style="rounded=0;whiteSpace=wrap;html=1;" vertex="1" parent="1">
          <mxGeometry x="120" y="60" width="120" height="40" as="geometry" />
        </mxCell>
        <mxCell id="NGaofTwTxS4VPDwiYb_3-24" value="" style="rounded=0;whiteSpace=wrap;html=1;" vertex="1" parent="1">
          <mxGeometry x="120" width="120" height="40" as="geometry" />
        </mxCell>
        <mxCell id="NGaofTwTxS4VPDwiYb_3-25" value="" style="rounded=0;whiteSpace=wrap;html=1;" vertex="1" parent="1">
          <mxGeometry x="120" y="120" width="120" height="40" as="geometry" />
        </mxCell>
        <mxCell id="NGaofTwTxS4VPDwiYb_3-26" value="" style="rounded=0;whiteSpace=wrap;html=1;" vertex="1" parent="1">
          <mxGeometry x="120" y="180" width="120" height="40" as="geometry" />
        </mxCell>
        <mxCell id="NGaofTwTxS4VPDwiYb_3-27" value="" style="rounded=0;whiteSpace=wrap;html=1;" vertex="1" parent="1">
          <mxGeometry x="120" y="240" width="120" height="40" as="geometry" />
        </mxCell>
        <mxCell id="NGaofTwTxS4VPDwiYb_3-28" value="" style="rounded=0;whiteSpace=wrap;html=1;" vertex="1" parent="1">
          <mxGeometry x="120" y="300" width="120" height="40" as="geometry" />
        </mxCell>
        <mxCell id="NGaofTwTxS4VPDwiYb_3-29" value="" style="rounded=0;whiteSpace=wrap;html=1;" vertex="1" parent="1">
          <mxGeometry x="120" y="480" width="120" height="40" as="geometry" />
        </mxCell>
        <mxCell id="NGaofTwTxS4VPDwiYb_3-30" value="" style="rounded=0;whiteSpace=wrap;html=1;" vertex="1" parent="1">
          <mxGeometry x="120" y="420" width="120" height="40" as="geometry" />
        </mxCell>
        <mxCell id="NGaofTwTxS4VPDwiYb_3-31" value="" style="rounded=0;whiteSpace=wrap;html=1;" vertex="1" parent="1">
          <mxGeometry x="120" y="360" width="120" height="40" as="geometry" />
        </mxCell>
        <mxCell id="NGaofTwTxS4VPDwiYb_3-32" value="" style="rounded=0;whiteSpace=wrap;html=1;" vertex="1" parent="1">
          <mxGeometry x="120" y="540" width="120" height="40" as="geometry" />
        </mxCell>
        <mxCell id="NGaofTwTxS4VPDwiYb_3-33" value="" style="rounded=0;whiteSpace=wrap;html=1;" vertex="1" parent="1">
          <mxGeometry x="120" y="900" width="120" height="40" as="geometry" />
        </mxCell>
        <mxCell id="NGaofTwTxS4VPDwiYb_3-34" value="" style="rounded=0;whiteSpace=wrap;html=1;" vertex="1" parent="1">
          <mxGeometry x="120" y="840" width="120" height="40" as="geometry" />
        </mxCell>
        <mxCell id="NGaofTwTxS4VPDwiYb_3-35" value="" style="rounded=0;whiteSpace=wrap;html=1;" vertex="1" parent="1">
          <mxGeometry x="120" y="780" width="120" height="40" as="geometry" />
        </mxCell>
        <mxCell id="NGaofTwTxS4VPDwiYb_3-36" value="" style="rounded=0;whiteSpace=wrap;html=1;" vertex="1" parent="1">
          <mxGeometry x="120" y="720" width="120" height="40" as="geometry" />
        </mxCell>
        <mxCell id="NGaofTwTxS4VPDwiYb_3-37" value="" style="rounded=0;whiteSpace=wrap;html=1;" vertex="1" parent="1">
          <mxGeometry x="120" y="660" width="120" height="40" as="geometry" />
        </mxCell>
        <mxCell id="NGaofTwTxS4VPDwiYb_3-38" value="" style="rounded=0;whiteSpace=wrap;html=1;" vertex="1" parent="1">
          <mxGeometry x="120" y="600" width="120" height="40" as="geometry" />
        </mxCell>
      </root>
    </mxGraphModel>
  </diagram>
</mxfile>
